<?xml version="1.0" encoding="UTF-8" standalone="no"?>
<svg width="30px" height="28px" viewBox="0 0 30 28" version="1.1" xmlns="http://www.w3.org/2000/svg" xmlns:xlink="http://www.w3.org/1999/xlink" xmlns:sketch="http://www.bohemiancoding.com/sketch/ns">
    <!-- Generator: Sketch 3.4 (15575) - http://www.bohemiancoding.com/sketch -->
    <title>pin--star</title>
    <desc>Created with Sketch.</desc>
    <defs></defs>
    <g id="Page-1" stroke="none" stroke-width="1" fill="none" fill-rule="evenodd" sketch:type="MSPage">
        <g id="pin--star" sketch:type="MSLayerGroup">
            <polygon fill="#FAB800" sketch:type="MSShapeGroup" points="15 22.5 6.18322122 27.1352549 7.86707613 17.3176275 0.734152256 10.3647451 10.5916106 8.93237254 15 0 19.4083894 8.93237254 29.2658477 10.3647451 22.1329239 17.3176275 23.8167788 27.1352549 "></polygon>
            <path d="M6.50268479,25.2726394 L14.3019883,21.1723029 L15,20.8053364 L15.6980117,21.1723029 L23.4973152,25.2726394 L23.6916357,26.4056147 L23.1615211,26.7907656 L22.1440458,26.2558472 L20.6545114,17.571195 L20.521203,16.7939476 L21.0859063,16.2434979 L27.3956754,10.0929931 L28.5332474,10.258292 L28.7357331,10.8814791 L27.9125783,11.6838567 L19.1926919,10.4167831 L18.4122911,10.3033842 L18.0632853,9.59622111 L14.1636335,1.6946636 L14.6723711,0.663848567 L15.3276289,0.663848567 L15.8363665,1.6946636 L11.9367147,9.59622111 L11.5877089,10.3033842 L10.8073081,10.4167831 L2.08742165,11.6838567 L1.26426688,10.8814791 L1.46675264,10.258292 L2.60432457,10.0929931 L8.91409366,16.2434979 L9.47879698,16.7939476 L9.34548861,17.571195 L7.85595418,26.2558472 L6.83847892,26.7907656 L6.3083643,26.4056147 L6.50268479,25.2726394 L6.50268479,25.2726394 Z M15,22.5 L6.18322122,27.1352549 L7.86707613,17.3176275 L0.734152256,10.3647451 L10.5916106,8.93237254 L15,0 L19.4083894,8.93237254 L29.2658477,10.3647451 L22.1329239,17.3176275 L23.8167788,27.1352549 L15,22.5 L15,22.5 Z" id="Shape" fill-opacity="0.3" fill="#2C2C2C" sketch:type="MSShapeGroup"></path>
        </g>
    </g>
</svg>